<?xml version="1.0" standalone="no"?>
<!DOCTYPE svg PUBLIC "-//W3C//DTD SVG 20010904//EN"
 "http://www.w3.org/TR/2001/REC-SVG-20010904/DTD/svg10.dtd">
<svg version="1.0" xmlns="http://www.w3.org/2000/svg"
 width="293.000000pt" height="293.000000pt" viewBox="0 0 293.000000 293.000000"
 preserveAspectRatio="xMidYMid meet">
<metadata>
Created by potrace 1.14, written by Peter Selinger 2001-2017
</metadata>
<g transform="translate(0.000000,293.000000) scale(0.100000,-0.100000)"
fill="#000000" stroke="none">
<path d="M1310 2883 c-321 -31 -660 -202 -889 -449 -99 -107 -155 -191 -252
-374 -34 -65 -96 -268 -113 -375 -11 -66 -15 -326 -6 -385 4 -30 11 -75 15
-100 8 -56 46 -187 75 -260 72 -183 172 -333 320 -480 156 -157 300 -252 489
-325 126 -49 208 -69 363 -90 43 -6 264 -6 306 0 93 12 122 18 208 40 293 74
587 266 758 495 22 30 44 57 47 60 13 11 98 159 128 223 42 91 85 222 107 332
29 146 25 443 -8 570 -5 22 -12 47 -13 56 -14 71 -84 249 -126 321 -16 27 -29
51 -29 53 0 7 -82 126 -110 160 -64 79 -224 226 -308 283 -174 119 -392 205
-597 236 -82 12 -280 17 -365 9z"/>
</g>
</svg>
